<svg xmlns="http://www.w3.org/2000/svg" viewBox="0 0 120 40" role="img" aria-label="Cisco">
  <g fill="#049FD9">
    <rect x="8" y="18" width="5" height="14" rx="2.5"/>
    <rect x="16" y="12" width="5" height="20" rx="2.5"/>
    <rect x="24" y="8" width="5" height="24" rx="2.5"/>
    <rect x="32" y="12" width="5" height="20" rx="2.5"/>
    <rect x="40" y="16" width="5" height="16" rx="2.5"/>
    <rect x="48" y="12" width="5" height="20" rx="2.5"/>
    <rect x="56" y="8" width="5" height="24" rx="2.5"/>
    <rect x="64" y="12" width="5" height="20" rx="2.5"/>
    <rect x="72" y="18" width="5" height="14" rx="2.5"/>
  </g>
  <path fill="#049FD9" d="M84 30h4.2c2.2 0 3.6-1.1 3.6-2.8 0-1.2-.7-2-2-2.3l2.8-4.2h-3.5l-2.2 3.5h-1.1V18h-2.6v12zm2.6-5.2h1.2c.9 0 1.4-.4 1.4-1.1 0-.7-.5-1.1-1.4-1.1h-1.2v2.2zm8.8 5.2h2.6V18h-2.6v12z"/>
</svg>
